<?xml version="1.0" encoding="UTF-8" standalone="no"?>
<!-- Created with Inkscape (http://www.inkscape.org/) -->

<svg
   width="16"
   height="16"
   viewBox="0 0 4.2333333 4.2333333"
   version="1.1"
   id="svg940"
   inkscape:version="1.2.2 (b0a84865, 2022-12-01)"
   sodipodi:docname="favicon.svg"
   inkscape:export-filename="../img/favicon.png"
   inkscape:export-xdpi="96"
   inkscape:export-ydpi="96"
   xmlns:inkscape="http://www.inkscape.org/namespaces/inkscape"
   xmlns:sodipodi="http://sodipodi.sourceforge.net/DTD/sodipodi-0.dtd"
   xmlns="http://www.w3.org/2000/svg"
   xmlns:svg="http://www.w3.org/2000/svg">
  <sodipodi:namedview
     id="namedview942"
     pagecolor="#ffffff"
     bordercolor="#666666"
     borderopacity="1.0"
     inkscape:pageshadow="2"
     inkscape:pageopacity="0.0"
     inkscape:pagecheckerboard="0"
     inkscape:document-units="mm"
     showgrid="false"
     units="px"
     inkscape:zoom="25.925318"
     inkscape:cx="-6.3451488"
     inkscape:cy="12.285288"
     inkscape:window-width="1920"
     inkscape:window-height="1011"
     inkscape:window-x="0"
     inkscape:window-y="32"
     inkscape:window-maximized="1"
     inkscape:current-layer="layer1"
     inkscape:showpageshadow="2"
     inkscape:deskcolor="#d1d1d1" />
  <defs
     id="defs937">
    <rect
       x="2.9736891"
       y="-6.297224"
       width="14.5186"
       height="15.568137"
       id="rect1928" />
    <inkscape:path-effect
       effect="bspline"
       id="path-effect345805"
       is_visible="true"
       lpeversion="1"
       weight="33.333333"
       steps="2"
       helper_size="0"
       apply_no_weight="true"
       apply_with_weight="true"
       only_selected="false" />
    <inkscape:path-effect
       effect="bspline"
       id="path-effect345809"
       is_visible="true"
       lpeversion="1"
       weight="33.333333"
       steps="2"
       helper_size="0"
       apply_no_weight="true"
       apply_with_weight="true"
       only_selected="false" />
    <clipPath
       clipPathUnits="userSpaceOnUse"
       id="clipPath4096">
      <g
         id="g4100">
        <rect
           style="fill:#ff6600;fill-opacity:1;stroke:#ff6600;stroke-width:0.605499;stroke-miterlimit:4;stroke-dasharray:none;stroke-opacity:1"
           id="rect4098"
           width="281.41461"
           height="70.605919"
           x="3.1790476"
           y="-12.90098" />
      </g>
    </clipPath>
    <clipPath
       clipPathUnits="userSpaceOnUse"
       id="clipPath4090">
      <g
         id="g4094">
        <rect
           style="fill:#ff6600;fill-opacity:1;stroke:#ff6600;stroke-width:0.605499;stroke-miterlimit:4;stroke-dasharray:none;stroke-opacity:1"
           id="rect4092"
           width="281.41461"
           height="70.605919"
           x="3.1790476"
           y="-12.90098" />
      </g>
    </clipPath>
    <clipPath
       clipPathUnits="userSpaceOnUse"
       id="clipPath4084">
      <g
         id="g4088">
        <rect
           style="fill:#ff6600;fill-opacity:1;stroke:#ff6600;stroke-width:0.605499;stroke-miterlimit:4;stroke-dasharray:none;stroke-opacity:1"
           id="rect4086"
           width="281.41461"
           height="70.605919"
           x="3.1790476"
           y="-12.90098" />
      </g>
    </clipPath>
    <clipPath
       clipPathUnits="userSpaceOnUse"
       id="clipPath5960">
      <g
         id="g5964">
        <rect
           style="fill:#ff6600;fill-opacity:1;stroke:#ff6600;stroke-width:0.605499;stroke-miterlimit:4;stroke-dasharray:none;stroke-opacity:1"
           id="rect5962"
           width="281.41461"
           height="70.605919"
           x="3.1790476"
           y="-12.90098" />
      </g>
    </clipPath>
    <clipPath
       clipPathUnits="userSpaceOnUse"
       id="clipPath5954">
      <g
         id="g5958">
        <rect
           style="fill:#ff6600;fill-opacity:1;stroke:#ff6600;stroke-width:0.605499;stroke-miterlimit:4;stroke-dasharray:none;stroke-opacity:1"
           id="rect5956"
           width="281.41461"
           height="70.605919"
           x="3.1790476"
           y="-12.90098" />
      </g>
    </clipPath>
    <clipPath
       clipPathUnits="userSpaceOnUse"
       id="clipPath5948">
      <g
         id="g5952">
        <rect
           style="fill:#ff6600;fill-opacity:1;stroke:#ff6600;stroke-width:0.605499;stroke-miterlimit:4;stroke-dasharray:none;stroke-opacity:1"
           id="rect5950"
           width="281.41461"
           height="70.605919"
           x="3.1790476"
           y="-12.90098" />
      </g>
    </clipPath>
    <clipPath
       clipPathUnits="userSpaceOnUse"
       id="clipPath5942">
      <g
         id="g5946">
        <rect
           style="fill:#ff6600;fill-opacity:1;stroke:#ff6600;stroke-width:0.605499;stroke-miterlimit:4;stroke-dasharray:none;stroke-opacity:1"
           id="rect5944"
           width="281.41461"
           height="70.605919"
           x="3.1790476"
           y="-12.90098" />
      </g>
    </clipPath>
    <clipPath
       clipPathUnits="userSpaceOnUse"
       id="clipPath5936">
      <g
         id="g5940">
        <rect
           style="fill:#ff6600;fill-opacity:1;stroke:#ff6600;stroke-width:0.605499;stroke-miterlimit:4;stroke-dasharray:none;stroke-opacity:1"
           id="rect5938"
           width="281.41461"
           height="70.605919"
           x="3.1790476"
           y="-12.90098" />
      </g>
    </clipPath>
    <clipPath
       clipPathUnits="userSpaceOnUse"
       id="clipPath5966">
      <g
         id="g5970">
        <rect
           style="fill:#ff6600;fill-opacity:1;stroke:#ff6600;stroke-width:0.605499;stroke-miterlimit:4;stroke-dasharray:none;stroke-opacity:1"
           id="rect5968"
           width="281.41461"
           height="70.605919"
           x="3.1790476"
           y="-12.90098" />
      </g>
    </clipPath>
  </defs>
  <g
     inkscape:label="Layer 1"
     inkscape:groupmode="layer"
     id="layer1">
    <rect
       style="fill:#ffffff;stroke:#b3b3b3;stroke-width:0.00527626"
       id="rect568"
       width="4.2355571"
       height="4.2049403"
       x="-0.00011729857"
       y="0.030499486"
       rx="0.69999999"
       ry="0.60000002" />
    <path
       id="path345753"
       sodipodi:nodetypes="cccccccccccccccccc"
       fill="url(#linearGradient10460)"
       d="m 0.93335995,2.4112468 1.2837e-4,-0.2286509 0.001181,-1.73107922 C 1.1026577,0.57350377 1.3305009,0.61000883 1.5376092,0.52412531 1.8434083,0.39731238 1.9841534,0.05669183 1.8517442,-0.23628553 1.7193597,-0.52927383 1.3638281,-0.66407973 1.058001,-0.53725905 0.81691653,-0.43726161 0.68127745,-0.20400136 0.69837646,0.03367988 L 0.72217314,2.0212321 C 0.64458649,1.9524356 0.52165427,1.7751839 0.44416718,1.6744678 0.35168747,1.554328 0.27813253,1.4195076 0.25681104,1.287922 0.23551391,1.1563002 0.25805043,1.0280155 0.37056112,0.88774714 c 0.0314152,-0.0331799 0.040637,-0.0803689 0.0239631,-0.12220351 -0.0166954,-0.041865 -0.0563307,-0.0710717 -0.10280524,-0.0756986 -0.0465159,-0.004629 -0.091901,0.0159882 -0.11722927,0.0536542 C 0.02414208,0.93093626 -0.01796537,1.1374338 0.01217721,1.3236282 0.04232344,1.5098207 0.11817053,1.682968 0.23657675,1.7873443 0.45970592,1.9657174 0.6115994,2.1171636 0.73366897,2.2209002 0.79568429,2.2862341 0.86677091,2.347801 0.93333321,2.4112467 Z"
       style="fill:#ffffff;fill-opacity:0;stroke-width:0.0146881;stroke-miterlimit:4;stroke-dasharray:none"
       inkscape:export-filename="/home/weigl/repos/mei-friend-online/app/static/img/favicon.png"
       inkscape:export-xdpi="90"
       inkscape:export-ydpi="90" />
    <text
       xml:space="preserve"
       style="font-size:1.33301px;font-family:'Arial Narrow';-inkscape-font-specification:'Arial Narrow';fill:#000000;stroke:#b3b3b3;stroke-width:0.0146881;stroke-dasharray:none"
       x="0.57381517"
       y="2.789345"
       id="text964"><tspan
         sodipodi:role="line"
         id="tspan962"
         style="font-size:1.33301px;stroke-width:0.0146881"
         x="0.57381517"
         y="2.789345" /></text>
    <text
       xml:space="preserve"
       transform="matrix(0.24993864,0,0,0.24993864,0.15847526,-0.22733416)"
       id="text1926"
       style="font-size:5.33333px;font-family:'Arial Narrow';-inkscape-font-specification:'Arial Narrow';white-space:pre;shape-inside:url(#rect1928);display:inline;fill:#000000;stroke:#b3b3b3;stroke-width:0.0587668;stroke-dasharray:none" />
    <g
       id="g828"
       transform="translate(0,0.00414865)">
      <g
         id="g807"
         transform="translate(0.07009285,0.15308395)">
        <path
           d="M 115.90625,33.566968 V 18.980784 c 0,-4.258382 -1.4684,-6.852569 -6.31412,-6.852569 -3.42626,0 -5.53097,2.153665 -6.75463,4.747852 -0.63631,-4.30733 -3.96468,-4.747852 -6.167279,-4.747852 -4.356251,0 -6.216223,3.475232 -6.85253,4.992586 l -0.04895,-0.04895 v -2.594187 c 0,-1.517354 -0.29368,-2.153664 -2.153652,-2.153664 h -0.783146 c -1.713133,0 -2.202599,0.440522 -2.202599,2.202611 v 18.991407 c 0,1.713142 0.44052,2.202612 2.202599,2.202612 h 1.076826 c 1.713132,0 2.153652,-0.48947 2.153652,-2.153665 V 21.868653 c 0,-4.405223 2.447332,-6.607835 4.845717,-6.607835 2.055759,0 2.643118,1.223673 2.643118,3.915754 v 14.341449 c 0,1.713142 0.44052,2.202612 2.202599,2.202612 h 1.076835 c 1.71313,0 2.15365,-0.48947 2.15365,-2.153665 V 21.868653 c 0,-4.405223 2.44733,-6.607835 4.84571,-6.607835 2.05576,0 2.64312,1.223673 2.64312,3.915754 v 14.341449 c 0,1.713142 0.44052,2.202612 2.2026,2.202612 h 1.07683 c 1.71313,0 2.15365,-0.48947 2.15365,-2.153665 z"
           style="font-size:160px;line-height:1.25;font-family:'Latin Modern Sans Demi Cond';-inkscape-font-specification:'Latin Modern Sans Demi Cond';letter-spacing:0px;word-spacing:0px;white-space:pre;fill:#2c5aa0;stroke-width:0.305917"
           id="path53579"
           clip-path="url(#clipPath4096)"
           transform="matrix(0.05729832,0,0,0.05729832,-4.6283133,-0.01412886)" />
        <path
           d="m 138.66644,22.260228 c 0,-6.705728 -3.13259,-10.376748 -8.8104,-10.376748 -4.3073,0 -10.03406,2.447347 -10.03406,12.138838 0,9.54465 5.82465,12.187784 10.62142,12.187784 1.81103,0 3.32837,-0.391575 4.84572,-1.076832 0.92998,-0.440523 3.08364,-1.664196 3.08364,-2.594187 0,-0.391576 -0.0979,-1.321567 -0.14684,-1.76209 -0.14684,-0.929991 -0.14684,-1.174726 -0.63631,-1.174726 -0.24473,0 -0.39157,0.146841 -0.63631,0.440522 -2.30049,2.741028 -5.28623,3.03471 -6.31411,3.03471 -5.77571,0 -5.77571,-7.244145 -5.77571,-8.712553 h 11.6493 c 1.5663,0 2.15366,-0.342628 2.15366,-2.104718 z m -4.20941,-0.195787 h -9.5446 c 0.19579,-3.524179 1.61524,-7.048358 4.99256,-7.048358 4.25836,0 4.45414,4.552064 4.55204,7.048358 z"
           style="font-size:160px;line-height:1.25;font-family:'Latin Modern Sans Demi Cond';-inkscape-font-specification:'Latin Modern Sans Demi Cond';letter-spacing:0px;word-spacing:0px;white-space:pre;fill:#2c5aa0;stroke-width:0.305917"
           id="path53581"
           clip-path="url(#clipPath4090)"
           transform="matrix(0.05729832,0,0,0.05729832,-4.6283133,-0.01412886)" />
        <path
           d="M 147.96627,33.566968 V 14.771349 c 0,-1.517355 -0.29368,-2.153665 -2.15365,-2.153665 h -0.92999 c -1.71313,0 -2.2026,0.440522 -2.2026,2.202612 v 18.697725 c 0,1.713142 0.44052,2.202612 2.2026,2.202612 h 0.92999 c 1.71313,0 2.15365,-0.48947 2.15365,-2.153665 z M 148.35784,5.9609024 V 4.7861762 c 0,-1.8599832 -0.48947,-2.3005055 -2.2026,-2.3005055 H 144.54 c -1.66418,0 -2.2026,0.3915754 -2.2026,2.3005055 v 1.1747262 c 0,1.7620893 0.44052,2.3005055 2.2026,2.3005055 h 1.61524 c 1.71313,0 2.2026,-0.4894693 2.2026,-2.3005055 z"
           style="font-size:160px;line-height:1.25;font-family:'Latin Modern Sans Demi Cond';-inkscape-font-specification:'Latin Modern Sans Demi Cond';letter-spacing:0px;word-spacing:0px;white-space:pre;fill:#2c5aa0;stroke-width:0.305917"
           id="path53583"
           clip-path="url(#clipPath4084)"
           transform="matrix(0.05729832,0,0,0.05729832,-4.6283133,-0.01412886)" />
      </g>
      <g
         id="g815"
         transform="translate(0.02941561)">
        <path
           d="M 182.32678,4.3946008 V 3.0240869 c 0,-1.1747262 -0.049,-1.2236731 -1.41946,-1.5173547 -1.27261,-0.2447346 -2.30049,-0.2447346 -2.74101,-0.2447346 -5.38413,0 -8.12514,2.8878686 -8.12514,7.5867734 v 3.768913 c -1.12577,0 -2.59417,0 -2.59417,1.566302 0,1.566301 1.41945,1.566301 2.59417,1.566301 v 17.767734 c 0,1.713142 0.44052,2.202612 2.2026,2.202612 h 0.92999 c 1.71313,0 2.15365,-0.48947 2.15365,-2.153665 V 15.750287 h 2.00681 c 0.63631,0 2.15365,0 2.15365,-1.566301 0,-1.566302 -1.51734,-1.566302 -2.15365,-1.566302 h -2.15365 V 7.6250978 c 0,-1.1747262 0,-3.230497 2.98574,-3.230497 0.88104,0 1.90892,0.1468408 2.98575,0.9299916 0.34262,0.2447346 0.44052,0.2936815 0.6363,0.2936815 0.53842,0 0.53842,-0.4405223 0.53842,-1.2236731 z"
           style="font-size:160px;line-height:1.25;font-family:'Latin Modern Sans Demi Cond';-inkscape-font-specification:'Latin Modern Sans Demi Cond';letter-spacing:0px;word-spacing:0px;white-space:pre;fill:#2c5aa0;stroke-width:0.305917"
           id="path53587"
           clip-path="url(#clipPath5966)"
           transform="matrix(0.04604962,0,0,0.04426721,-7.6237747,2.3533327)" />
        <path
           d="m 195.44441,14.820296 v -1.419461 c 0,-1.027885 0,-1.27262 -0.78314,-1.27262 -2.15365,0 -4.99256,1.468408 -6.41201,5.579949 h -0.0489 v -3.230497 c 0,-1.517354 -0.29368,-2.153664 -2.15365,-2.153664 h -0.68525 c -1.71314,0 -2.2026,0.440522 -2.2026,2.202611 v 18.991407 c 0,1.713142 0.44052,2.202612 2.2026,2.202612 h 0.92998 c 1.71314,0 2.15366,-0.48947 2.15366,-2.153665 v -9.887279 c 0,-4.503117 2.74101,-7.293092 6.11833,-7.586773 0.83209,-0.04895 0.88103,-0.09789 0.88103,-1.27262 z"
           style="font-size:160px;line-height:1.25;font-family:'Latin Modern Sans Demi Cond';-inkscape-font-specification:'Latin Modern Sans Demi Cond';letter-spacing:0px;word-spacing:0px;white-space:pre;fill:#2c5aa0;stroke-width:0.305917"
           id="path53589"
           clip-path="url(#clipPath5960)"
           transform="matrix(0.04604962,0,0,0.04426721,-7.769976,2.3533327)" />
        <path
           d="M 204.10794,33.566968 V 14.771349 c 0,-1.517355 -0.29368,-2.153665 -2.15365,-2.153665 h -0.92999 c -1.71313,0 -2.2026,0.440522 -2.2026,2.202612 v 18.697725 c 0,1.713142 0.44052,2.202612 2.2026,2.202612 h 0.92999 c 1.71313,0 2.15365,-0.48947 2.15365,-2.153665 z M 204.49951,5.9609024 V 4.7861762 c 0,-1.8599832 -0.48946,-2.3005055 -2.2026,-2.3005055 h -1.61524 c -1.66418,0 -2.20259,0.3915754 -2.20259,2.3005055 v 1.1747262 c 0,1.7620893 0.44052,2.3005055 2.20259,2.3005055 h 1.61524 c 1.71314,0 2.2026,-0.4894693 2.2026,-2.3005055 z"
           style="font-size:160px;line-height:1.25;font-family:'Latin Modern Sans Demi Cond';-inkscape-font-specification:'Latin Modern Sans Demi Cond';letter-spacing:0px;word-spacing:0px;white-space:pre;fill:#2c5aa0;stroke-width:0.305917"
           id="path53591"
           clip-path="url(#clipPath5954)"
           transform="matrix(0.04604962,0,0,0.04426721,-7.8921525,2.3533327)" />
        <path
           d="m 226.96602,22.260228 c 0,-6.705728 -3.13259,-10.376748 -8.8104,-10.376748 -4.3073,0 -10.03406,2.447347 -10.03406,12.138838 0,9.54465 5.82465,12.187784 10.62142,12.187784 1.81103,0 3.32838,-0.391575 4.84572,-1.076832 0.92999,-0.440523 3.08364,-1.664196 3.08364,-2.594187 0,-0.391576 -0.0979,-1.321567 -0.14684,-1.76209 -0.14684,-0.929991 -0.14684,-1.174726 -0.63631,-1.174726 -0.24473,0 -0.39157,0.146841 -0.6363,0.440522 -2.3005,2.741028 -5.28624,3.03471 -6.31412,3.03471 -5.7757,0 -5.7757,-7.244145 -5.7757,-8.712553 h 11.6493 c 1.56629,0 2.15365,-0.342628 2.15365,-2.104718 z m -4.20941,-0.195787 h -9.5446 c 0.19579,-3.524179 1.61524,-7.048358 4.99256,-7.048358 4.25836,0 4.45415,4.552064 4.55204,7.048358 z"
           style="font-size:160px;line-height:1.25;font-family:'Latin Modern Sans Demi Cond';-inkscape-font-specification:'Latin Modern Sans Demi Cond';letter-spacing:0px;word-spacing:0px;white-space:pre;fill:#2c5aa0;stroke-width:0.305917"
           id="path53593"
           clip-path="url(#clipPath5948)"
           transform="matrix(0.04604962,0,0,0.04426721,-8.0805151,2.340736)" />
        <path
           d="M 249.23671,33.566968 V 18.980784 c 0,-3.915754 -1.22367,-6.852569 -6.26517,-6.852569 -3.62205,0 -5.62886,2.300505 -6.85253,4.992586 h -0.0489 v -2.643134 c 0,-1.517354 -0.29368,-2.153664 -2.15365,-2.153664 h -0.78314 c -1.71314,0 -2.2026,0.440522 -2.2026,2.202611 v 18.991407 c 0,1.713142 0.44052,2.202612 2.2026,2.202612 h 1.07682 c 1.71313,0 2.15365,-0.48947 2.15365,-2.153665 V 21.868653 c 0,-4.45417 2.49628,-6.607835 4.79677,-6.607835 2.05576,0 2.64312,1.174726 2.64312,3.915754 v 14.390396 c 0,1.517355 0.29368,2.153665 2.15365,2.153665 h 1.12578 c 1.71313,0 2.15365,-0.48947 2.15365,-2.153665 z"
           style="font-size:160px;line-height:1.25;font-family:'Latin Modern Sans Demi Cond';-inkscape-font-specification:'Latin Modern Sans Demi Cond';letter-spacing:0px;word-spacing:0px;white-space:pre;fill:#2c5aa0;stroke-width:0.305917"
           id="path53595"
           clip-path="url(#clipPath5942)"
           transform="matrix(0.04604962,0,0,0.04426721,-8.2752206,2.3533327)" />
        <path
           d="M 272.78004,33.566968 V 3.9051315 c 0,-1.5173546 -0.29368,-2.1536646 -2.15365,-2.1536646 h -0.97893 c -1.71313,0 -2.15365,0.4894692 -2.15365,2.1536646 V 14.526614 c -0.7342,-0.881044 -2.44734,-2.398399 -5.1394,-2.398399 -1.12577,0 -4.55204,0.244735 -6.75464,3.426285 -2.1047,3.083656 -2.1047,7.048357 -2.1047,8.614658 0,1.321567 0,5.188374 1.71313,8.076243 2.1047,3.475232 5.1394,3.964701 6.90148,3.964701 3.27942,0 5.09045,-2.398399 5.23729,-2.643134 0,1.517355 0.29368,2.153665 2.15365,2.153665 h 1.12577 c 1.71313,0 2.15365,-0.48947 2.15365,-2.153665 z m -5.43307,-2.789975 c -0.78315,1.223673 -2.05576,2.300506 -3.81784,2.300506 -4.60099,0 -4.60099,-5.824684 -4.60099,-8.859394 0,-3.034709 0,-8.957287 5.09045,-8.957287 2.05576,0 3.23048,1.566302 3.32838,1.664196 z"
           style="font-size:160px;line-height:1.25;font-family:'Latin Modern Sans Demi Cond';-inkscape-font-specification:'Latin Modern Sans Demi Cond';letter-spacing:0px;word-spacing:0px;white-space:pre;fill:#2c5aa0;stroke-width:0.305917"
           id="path53597"
           clip-path="url(#clipPath5936)"
           transform="matrix(0.04604962,0,0,0.04426721,-8.4740111,2.3316651)" />
      </g>
    </g>
  </g>
</svg>
