<?xml version="1.0" encoding="UTF-8" standalone="no"?>
<!-- Created with Inkscape (http://www.inkscape.org/) -->

<svg
   width="281.24725mm"
   height="70.274605mm"
   viewBox="0 0 281.24725 70.274609"
   version="1.1"
   id="svg442418"
   xmlns:xlink="http://www.w3.org/1999/xlink"
   xmlns="http://www.w3.org/2000/svg"
   xmlns:svg="http://www.w3.org/2000/svg">
  <defs
     id="defs442415">
    <clipPath
       clipPathUnits="userSpaceOnUse"
       id="clipPath267952">
      <rect
         style="fill:#0b2822;fill-opacity:0.88;stroke:#2c5aa0;stroke-width:2.04429;stroke-miterlimit:4;stroke-dasharray:none;stroke-opacity:1"
         id="rect267954"
         width="612.46222"
         height="407.78662"
         x="1736.5244"
         y="-3979.8813" />
    </clipPath>
    <clipPath
       clipPathUnits="userSpaceOnUse"
       id="clipPath250369">
      <path
         id="path250371"
         style="fill:#87aade;fill-opacity:1;stroke:#000000;stroke-width:11.9215;stroke-miterlimit:4;stroke-dasharray:none;stroke-opacity:1"
         d="m 2884.3189,-3949.4249 a 259.61767,260.37795 0 0 0 -224.2529,130.3557 226.35072,197.93455 0 0 0 -185.7284,194.3205 226.35072,197.93455 0 0 0 226.3498,197.9375 226.35072,197.93455 0 0 0 94.8189,-18.2643 259.61767,260.37795 0 0 0 88.8126,16.406 259.61767,260.37795 0 0 0 259.6146,-260.3743 259.61767,260.37795 0 0 0 -259.6146,-260.3811 z" />
    </clipPath>
    <rect
       x="4301.3076"
       y="1167.1324"
       width="1050.8965"
       height="271.87714"
       id="rect357106" />
    <clipPath
       clipPathUnits="userSpaceOnUse"
       id="clipPath345323">
      <rect
         style="fill:none;fill-opacity:1;stroke:#000000;stroke-width:1.29035;stroke-miterlimit:4;stroke-dasharray:none;stroke-opacity:1"
         id="rect345325"
         width="328.70966"
         height="328.70966"
         x="1747.2979"
         y="-3968.0437" />
    </clipPath>
    <clipPath
       clipPathUnits="userSpaceOnUse"
       id="clipPath250369-1">
      <path
         id="path250371-5"
         style="fill:#87aade;fill-opacity:1;stroke:#000000;stroke-width:11.9215;stroke-miterlimit:4;stroke-dasharray:none;stroke-opacity:1"
         d="m 2884.3189,-3949.4249 a 259.61767,260.37795 0 0 0 -224.2529,130.3557 226.35072,197.93455 0 0 0 -185.7284,194.3205 226.35072,197.93455 0 0 0 226.3498,197.9375 226.35072,197.93455 0 0 0 94.8189,-18.2643 259.61767,260.37795 0 0 0 88.8126,16.406 259.61767,260.37795 0 0 0 259.6146,-260.3743 259.61767,260.37795 0 0 0 -259.6146,-260.3811 z" />
    </clipPath>
    <linearGradient
       xlink:href="#linearGradient255177"
       id="linearGradient345811"
       gradientUnits="userSpaceOnUse"
       x1="2779.6794"
       y1="-3535.5962"
       x2="3040.0459"
       y2="-3533.0481"
       gradientTransform="matrix(0.19735496,0,0,0.19709073,-663.42848,741.69863)" />
    <linearGradient
       id="linearGradient255177">
      <stop
         style="stop-color:#666666;stop-opacity:1;"
         offset="0"
         id="stop255173" />
      <stop
         style="stop-color:#87aade;stop-opacity:1"
         offset="1"
         id="stop255175" />
    </linearGradient>
    <clipPath
       clipPathUnits="userSpaceOnUse"
       id="clipPath18410">
      <rect
         style="fill:#ff6600;fill-opacity:1;stroke:#ff6600;stroke-width:0.605496;stroke-miterlimit:4;stroke-dasharray:none;stroke-opacity:1"
         id="rect18412"
         width="281.41461"
         height="70.605499"
         x="-126.10088"
         y="-9.4387932" />
    </clipPath>
    <clipPath
       clipPathUnits="userSpaceOnUse"
       id="clipPath18414">
      <rect
         style="fill:#ff6600;fill-opacity:1;stroke:#ff6600;stroke-width:1.97929;stroke-miterlimit:4;stroke-dasharray:none;stroke-opacity:1"
         id="rect18416"
         width="919.90662"
         height="230.79993"
         x="4043.6985"
         y="1161.4762" />
    </clipPath>
    <rect
       x="4301.3076"
       y="1167.1324"
       width="1050.8965"
       height="271.87714"
       id="rect38161" />
    <rect
       x="4301.3076"
       y="1167.1324"
       width="1050.8965"
       height="271.87714"
       id="rect53554" />
    <rect
       x="4301.3076"
       y="1167.1324"
       width="1050.8965"
       height="271.87714"
       id="rect53556" />
  </defs>
  <g
     id="layer1"
     transform="translate(126.6339,9.2384338)">
    <g
       aria-label="mei-friend"
       transform="matrix(0.30591649,0,0,0.30591649,-1360.4889,-364.7535)"
       id="text357104"
       clip-path="url(#clipPath18414)"
       style="font-size:160px;line-height:1.25;letter-spacing:0px;word-spacing:0px;white-space:pre;shape-inside:url(#rect357106);fill:#2c5aa0">
      <path
         d="m 4412.1886,1313.3728 v -47.68 c 0,-13.92 -4.8,-22.4 -20.64,-22.4 -11.2,0 -18.08,7.04 -22.08,15.52 -2.08,-14.08 -12.96,-15.52 -20.16,-15.52 -14.24,0 -20.32,11.36 -22.4,16.32 l -0.16,-0.16 v -8.48 c 0,-4.96 -0.96,-7.04 -7.04,-7.04 h -2.56 c -5.6,0 -7.2,1.44 -7.2,7.2 v 62.08 c 0,5.6 1.44,7.2 7.2,7.2 h 3.52 c 5.6,0 7.04,-1.6 7.04,-7.04 v -38.24 c 0,-14.4 8,-21.6 15.84,-21.6 6.72,0 8.64,4 8.64,12.8 v 46.88 c 0,5.6 1.44,7.2 7.2,7.2 h 3.52 c 5.6,0 7.04,-1.6 7.04,-7.04 v -38.24 c 0,-14.4 8,-21.6 15.84,-21.6 6.72,0 8.64,4 8.64,12.8 v 46.88 c 0,5.6 1.44,7.2 7.2,7.2 h 3.52 c 5.6,0 7.04,-1.6 7.04,-7.04 z"
         style="font-family:'Latin Modern Sans Demi Cond';-inkscape-font-specification:'Latin Modern Sans Demi Cond'"
         id="path53579" />
      <path
         d="m 4486.5886,1276.4128 c 0,-21.92 -10.24,-33.92 -28.8,-33.92 -14.08,0 -32.8,8 -32.8,39.68 0,31.2 19.04,39.84 34.72,39.84 5.92,0 10.88,-1.28 15.84,-3.52 3.04,-1.44 10.08,-5.44 10.08,-8.48 0,-1.28 -0.32,-4.32 -0.48,-5.76 -0.48,-3.04 -0.48,-3.84 -2.08,-3.84 -0.8,0 -1.28,0.48 -2.08,1.44 -7.52,8.96 -17.28,9.92 -20.64,9.92 -18.88,0 -18.88,-23.68 -18.88,-28.48 h 38.08 c 5.12,0 7.04,-1.12 7.04,-6.88 z m -13.76,-0.64 h -31.2 c 0.64,-11.52 5.28,-23.04 16.32,-23.04 13.92,0 14.56,14.88 14.88,23.04 z"
         style="font-family:'Latin Modern Sans Demi Cond';-inkscape-font-specification:'Latin Modern Sans Demi Cond'"
         id="path53581" />
      <path
         d="m 4516.9885,1313.3728 v -61.44 c 0,-4.96 -0.96,-7.04 -7.04,-7.04 h -3.04 c -5.6,0 -7.2,1.44 -7.2,7.2 v 61.12 c 0,5.6 1.44,7.2 7.2,7.2 h 3.04 c 5.6,0 7.04,-1.6 7.04,-7.04 z m 1.28,-90.24 v -3.84 c 0,-6.08 -1.6,-7.52 -7.2,-7.52 h -5.28 c -5.44,0 -7.2,1.28 -7.2,7.52 v 3.84 c 0,5.76 1.44,7.52 7.2,7.52 h 5.28 c 5.6,0 7.2,-1.6 7.2,-7.52 z"
         style="font-family:'Latin Modern Sans Demi Cond';-inkscape-font-specification:'Latin Modern Sans Demi Cond'"
         id="path53583" />
      <path
         d="m 4568.0285,1282.6528 c 0,-5.12 -4.96,-5.12 -7.04,-5.12 h -26.24 c -2.08,0 -7.04,0 -7.04,5.12 0,5.12 4.96,5.12 7.04,5.12 h 26.24 c 2.08,0 7.04,0 7.04,-5.12 z"
         style="font-family:'Latin Modern Sans Demi Cond';-inkscape-font-specification:'Latin Modern Sans Demi Cond'"
         id="path53585" />
      <path
         d="m 4629.3084,1218.0128 v -4.48 c 0,-3.84 -0.16,-4 -4.64,-4.96 -4.16,-0.8 -7.52,-0.8 -8.96,-0.8 -17.6,0 -26.56,9.44 -26.56,24.8 v 12.32 c -3.68,0 -8.48,0 -8.48,5.12 0,5.12 4.64,5.12 8.48,5.12 v 58.08 c 0,5.6 1.44,7.2 7.2,7.2 h 3.04 c 5.6,0 7.04,-1.6 7.04,-7.04 v -58.24 h 6.56 c 2.08,0 7.04,0 7.04,-5.12 0,-5.12 -4.96,-5.12 -7.04,-5.12 h -7.04 v -16.32 c 0,-3.84 0,-10.56 9.76,-10.56 2.88,0 6.24,0.48 9.76,3.04 1.12,0.8 1.44,0.96 2.08,0.96 1.76,0 1.76,-1.44 1.76,-4 z"
         style="font-family:'Latin Modern Sans Demi Cond';-inkscape-font-specification:'Latin Modern Sans Demi Cond'"
         id="path53587" />
      <path
         d="m 4672.1882,1252.0928 v -4.64 c 0,-3.36 0,-4.16 -2.56,-4.16 -7.04,0 -16.32,4.8 -20.96,18.24 h -0.16 v -10.56 c 0,-4.96 -0.96,-7.04 -7.04,-7.04 h -2.24 c -5.6,0 -7.2,1.44 -7.2,7.2 v 62.08 c 0,5.6 1.44,7.2 7.2,7.2 h 3.04 c 5.6,0 7.04,-1.6 7.04,-7.04 v -32.32 c 0,-14.72 8.96,-23.84 20,-24.8 2.72,-0.16 2.88,-0.32 2.88,-4.16 z"
         style="font-family:'Latin Modern Sans Demi Cond';-inkscape-font-specification:'Latin Modern Sans Demi Cond'"
         id="path53589" />
      <path
         d="m 4700.5081,1313.3728 v -61.44 c 0,-4.96 -0.96,-7.04 -7.04,-7.04 h -3.04 c -5.6,0 -7.2,1.44 -7.2,7.2 v 61.12 c 0,5.6 1.44,7.2 7.2,7.2 h 3.04 c 5.6,0 7.04,-1.6 7.04,-7.04 z m 1.28,-90.24 v -3.84 c 0,-6.08 -1.6,-7.52 -7.2,-7.52 h -5.28 c -5.44,0 -7.2,1.28 -7.2,7.52 v 3.84 c 0,5.76 1.44,7.52 7.2,7.52 h 5.28 c 5.6,0 7.2,-1.6 7.2,-7.52 z"
         style="font-family:'Latin Modern Sans Demi Cond';-inkscape-font-specification:'Latin Modern Sans Demi Cond'"
         id="path53591" />
      <path
         d="m 4775.2281,1276.4128 c 0,-21.92 -10.24,-33.92 -28.8,-33.92 -14.08,0 -32.8,8 -32.8,39.68 0,31.2 19.04,39.84 34.72,39.84 5.92,0 10.88,-1.28 15.84,-3.52 3.04,-1.44 10.08,-5.44 10.08,-8.48 0,-1.28 -0.32,-4.32 -0.48,-5.76 -0.48,-3.04 -0.48,-3.84 -2.08,-3.84 -0.8,0 -1.28,0.48 -2.08,1.44 -7.52,8.96 -17.28,9.92 -20.64,9.92 -18.88,0 -18.88,-23.68 -18.88,-28.48 h 38.08 c 5.12,0 7.04,-1.12 7.04,-6.88 z m -13.76,-0.64 h -31.2 c 0.64,-11.52 5.28,-23.04 16.32,-23.04 13.92,0 14.56,14.88 14.88,23.04 z"
         style="font-family:'Latin Modern Sans Demi Cond';-inkscape-font-specification:'Latin Modern Sans Demi Cond'"
         id="path53593" />
      <path
         d="m 4848.028,1313.3728 v -47.68 c 0,-12.8 -4,-22.4 -20.48,-22.4 -11.84,0 -18.4,7.52 -22.4,16.32 h -0.16 v -8.64 c 0,-4.96 -0.96,-7.04 -7.04,-7.04 h -2.56 c -5.6,0 -7.2,1.44 -7.2,7.2 v 62.08 c 0,5.6 1.44,7.2 7.2,7.2 h 3.52 c 5.6,0 7.04,-1.6 7.04,-7.04 v -38.24 c 0,-14.56 8.16,-21.6 15.68,-21.6 6.72,0 8.64,3.84 8.64,12.8 v 47.04 c 0,4.96 0.96,7.04 7.04,7.04 h 3.68 c 5.6,0 7.04,-1.6 7.04,-7.04 z"
         style="font-family:'Latin Modern Sans Demi Cond';-inkscape-font-specification:'Latin Modern Sans Demi Cond'"
         id="path53595" />
      <path
         d="m 4924.988,1313.3728 v -96.96 c 0,-4.96 -0.96,-7.04 -7.04,-7.04 h -3.2 c -5.6,0 -7.04,1.6 -7.04,7.04 v 34.72 c -2.4,-2.88 -8,-7.84 -16.8,-7.84 -3.68,0 -14.88,0.8 -22.08,11.2 -6.88,10.08 -6.88,23.04 -6.88,28.16 0,4.32 0,16.96 5.6,26.4 6.88,11.36 16.8,12.96 22.56,12.96 10.72,0 16.64,-7.84 17.12,-8.64 0,4.96 0.96,7.04 7.04,7.04 h 3.68 c 5.6,0 7.04,-1.6 7.04,-7.04 z m -17.76,-9.12 c -2.56,4 -6.72,7.52 -12.48,7.52 -15.04,0 -15.04,-19.04 -15.04,-28.96 0,-9.92 0,-29.28 16.64,-29.28 6.72,0 10.56,5.12 10.88,5.44 z"
         style="font-family:'Latin Modern Sans Demi Cond';-inkscape-font-specification:'Latin Modern Sans Demi Cond'"
         id="path53597" />
    </g>
    <path
       id="path345747"
       style="color:#000000;mix-blend-mode:lighten;fill:url(#linearGradient345811);fill-opacity:1;stroke:#424282;stroke-width:1.79;stroke-miterlimit:4;stroke-dasharray:none;stroke-opacity:1"
       d="m -94.359614,7.1841074 c -6.476616,0.04012 -12.933566,2.234043 -18.391426,6.2774376 -4.31965,3.186661 -8.02386,7.532925 -10.58407,12.682965 -5.05734,4.869541 -10.05425,9.823692 -14.96528,14.889988 -3.60918,3.738988 -7.18792,7.523879 -10.58724,11.520506 -2.02275,2.372932 -10.10552,14.111794 -11.8329,17.770961 -0.99194,2.136482 -1.87399,4.383968 -2.25502,6.784119 -0.19431,1.208422 -0.20922,2.459278 0.0123,3.664449 0.58468,3.790842 1.40968,7.567023 2.83217,11.061971 1.07296,2.614062 2.53248,5.090182 4.55701,6.832522 1.6872,1.473564 3.75483,2.314674 5.85603,2.493644 2.62096,0.23654 5.23832,-0.41321 7.71216,-1.373734 3.44742,-1.36004 6.68736,-3.32891 9.82973,-5.44173 6.29592,-4.262736 12.20026,-9.240955 18.39569,-13.689686 2.62508,-1.867376 5.30182,-3.668431 8.15172,-5.039592 1.42727,-0.684337 2.90994,-1.235265 4.44026,-1.503407 1.00376,-0.25269 1.981149,-0.628937 2.960425,-0.984921 4.004133,-1.502936 7.927272,-3.293879 11.752821,-5.326396 4.226337,-2.263706 8.348016,-4.836843 12.138987,-7.980795 2.694943,-2.257341 5.246466,-4.814001 7.255401,-7.90399 1.562518,-2.405354 2.76512,-5.197479 3.123182,-8.203585 0.601754,-4.985843 0.13949,-10.145385 -1.38411,-14.863697 -1.724488,-5.398137 -4.79756,-10.174059 -8.672902,-13.759218 -4.30972,-4.009063 -9.584642,-6.5458766 -15.041507,-7.4749236 -1.754644,-0.302375 -3.529535,-0.445011 -5.303361,-0.432888 z" />
    <path
       id="path345749"
       style="color:#000000;fill:#d7e3f4;fill-opacity:1;stroke:#424282;stroke-width:1.31177;stroke-miterlimit:4;stroke-dasharray:none;stroke-opacity:1"
       d="m -107.79489,16.757789 c -4.71179,0.02871 -9.40928,1.598799 -13.37998,4.492524 -3.14258,2.280538 -5.28001,6.035393 -8.0162,8.955468 -3.4448,3.676333 -6.99836,7.151634 -10.57119,10.777395 -2.62576,2.675861 -5.2293,5.384539 -7.70234,8.244798 -1.47158,1.698211 -2.8367,3.511566 -4.15936,5.360729 -1.63684,2.323621 -3.19255,4.738495 -4.44921,7.357259 -0.72162,1.52899 -1.36334,3.137409 -1.64054,4.855114 -0.14137,0.864834 -0.15223,1.760019 0.009,2.622509 0.42538,2.712954 1.02557,5.415402 2.06043,7.916601 0.78061,1.870786 1.84239,3.642868 3.3153,4.889763 1.22744,1.054573 2.73167,1.656527 4.26032,1.784616 1.90678,0.169282 3.81092,-0.295713 5.61068,-0.983126 2.50807,-0.973335 4.86513,-2.382394 7.15126,-3.894455 4.58033,-3.050669 8.87581,-6.613378 13.38306,-9.797163 1.90977,-1.336392 3.85715,-2.625346 5.93046,-3.606603 1.03831,-0.489809 2.11698,-0.88405 3.23033,-1.075938 0.73028,-0.18085 1.4413,-0.450135 2.15375,-0.704875 2.91305,-1.075623 5.76714,-2.357304 8.55026,-3.811912 3.074729,-1.620047 6.073304,-3.461545 8.831239,-5.711552 1.960645,-1.615493 3.816886,-3.445165 5.278437,-5.656563 1.136706,-1.721411 2.01164,-3.719614 2.272148,-5.870978 0.437753,-3.56815 0.101442,-7.260684 -1.006965,-10.637361 -1.254604,-3.863234 -3.490281,-7.281182 -6.309634,-9.846948 -3.13538,-2.869128 -6.972935,-4.68461 -10.942865,-5.349496 -1.27653,-0.216425 -2.56778,-0.318478 -3.85826,-0.309806 z" />
    <path
       id="path345751"
       style="fill:#87aade;fill-opacity:1;stroke:#424282;stroke-width:2.1;stroke-miterlimit:4;stroke-dasharray:none;stroke-opacity:1"
       d="m -89.47873,-6.8555135 a 17.515128,27.048639 79.193619 0 0 -1.245981,0.081753 17.515128,27.048639 79.193619 0 0 -3.831489,0.2225155 17.515128,27.048639 79.193619 0 0 -26.77122,20.619553 17.515128,27.048639 79.193619 0 0 9.9707,12.659255 17.515128,27.048639 79.193619 0 0 21.876608,5.165847 17.515128,27.048639 79.193619 0 0 26.770746,-20.61914 17.515128,27.048639 79.193619 0 0 -6.369256,-10.7088447 17.515128,27.048639 79.193619 0 0 -20.400108,-7.4209388 z" />
    <path
       id="path345753"
       fill="url(#linearGradient10460)"
       d="m -111.57199,50.579719 0.002,-3.350107 0.0184,-25.363113 c 2.60411,1.787316 6.13612,2.322163 9.3467,1.063836 4.740448,-1.858013 6.922247,-6.848647 4.869662,-11.141243 -2.052129,-4.2927536 -7.563622,-6.2678786 -12.304512,-4.4097476 -3.73727,1.465134 -5.83993,4.8827656 -5.57485,8.3651796 l 0.36894,29.120865 c -1.20274,-1.00798 -3.10842,-3.605005 -4.3096,-5.080664 -1.43369,-1.760236 -2.57386,-3.735579 -2.90438,-5.66352 -0.33022,-1.928473 0.0191,-3.808049 1.76338,-5.863211 0.48698,-0.486125 0.62995,-1.17752 0.37137,-1.790472 -0.25871,-0.613366 -0.87317,-1.041309 -1.5937,-1.109128 -0.7211,-0.06809 -1.42467,0.234322 -1.81725,0.786116 -2.33066,2.746242 -2.98341,5.771782 -2.51614,8.499834 0.46724,2.728011 1.64303,5.264904 3.47862,6.79419 3.45891,2.613462 5.81355,4.832388 7.70587,6.352293 0.96135,0.95727 2.06329,1.859314 3.09515,2.788892 z"
       style="fill:#ffffff;fill-opacity:0;stroke-width:1.31177;stroke-miterlimit:4;stroke-dasharray:none" />
    <path
       style="fill:#d7e3f4;fill-opacity:1;stroke:#424282;stroke-width:1.19606;stroke-linecap:butt;stroke-linejoin:miter;stroke-miterlimit:4;stroke-dasharray:none;stroke-opacity:1"
       d="m -123.69885,-8.1618666 c 2.0066,3.5367621 4.01298,7.0731606 5.9602,9.7408606 1.9472,2.6676996 3.83504,4.4666712 7.50335,5.9465706 3.66833,1.4799003 9.11681,2.6408754 14.564978,3.8017834"
       id="path345755" />
    <path
       id="path345759"
       style="fill:#d7e3f4;fill-opacity:1;stroke:#424282;stroke-width:2.1;stroke-linecap:butt;stroke-linejoin:miter;stroke-miterlimit:4;stroke-dasharray:none;stroke-opacity:1"
       d="m -123.69892,-8.1620813 c 4.0946,4.948709 8.18901,9.8971061 12.16123,12.6266383 3.85314,2.6476893 7.59067,3.2069057 11.32481,3.7043573 l 4.542558,3.1584337 c -3.093898,-3.8319361 -6.187718,-7.6639855 -9.972848,-10.76588187 -3.78511,-3.10189323 -8.26148,-5.47325783 -11.3859,-6.80542103 -3.1244,-1.3321602 -4.89687,-1.6252707 -6.66985,-1.9181264 z" />
    <ellipse
       style="fill:#000000;fill-opacity:1;stroke:#424282;stroke-width:1.31177;stroke-miterlimit:4;stroke-dasharray:none;stroke-opacity:1"
       id="ellipse345763"
       cx="-104.809"
       cy="12.642309"
       rx="9.1802006"
       ry="6.9002237" />
    <ellipse
       style="fill:#ffffff;fill-opacity:1;stroke:#000000;stroke-width:0.185283;stroke-miterlimit:4;stroke-dasharray:none"
       id="ellipse345765"
       cx="-104.65675"
       cy="12.492664"
       rx="8.4541569"
       ry="6.3544989" />
    <path
       style="fill:#d7e3f4;fill-opacity:1;stroke:#424282;stroke-width:1.09748;stroke-linecap:butt;stroke-linejoin:miter;stroke-miterlimit:4;stroke-dasharray:none;stroke-opacity:1"
       d="m -62.304614,-8.7147099 c -1.391902,2.8722633 -3.497847,5.9069943 -4.950208,8.10637549 -1.45236,2.19938101 -1.830521,5.72972141 -3.995277,6.92534031 -3.207613,1.4164255 -9.573012,0.7770574 -14.474842,2.0831784"
       id="path345767" />
    <path
       id="path345771"
       style="fill:#d7e3f4;fill-opacity:1;stroke:#424282;stroke-width:2.1;stroke-linecap:butt;stroke-linejoin:miter;stroke-miterlimit:4;stroke-dasharray:none;stroke-opacity:1"
       d="m -62.057341,-8.890942 c -7.393296,4.3943824 -8.417095,9.19265713 -9.49924,11.4694622 -1.467951,3.0885359 -1.751072,3.4979913 -5.186852,4.1709645 l -7.680342,0.4644531 c 2.38703,-3.2158457 3.469161,-5.2383852 6.60268,-7.93975081 3.13352,-2.70136339 7.013627,-4.88787029 9.765271,-6.16293279 2.751646,-1.2750596 4.374773,-1.6386193 5.998483,-2.0021962 z" />
    <ellipse
       style="fill:#000000;fill-opacity:1;stroke:#424282;stroke-width:1.31177;stroke-miterlimit:4;stroke-dasharray:none;stroke-opacity:1"
       id="ellipse345775"
       cx="-76.495987"
       cy="9.3190498"
       rx="9.1802006"
       ry="6.9002237" />
    <ellipse
       style="fill:#ffffff;fill-opacity:1;stroke:#000000;stroke-width:0.185283;stroke-miterlimit:4;stroke-dasharray:none"
       id="ellipse345777"
       cx="-76.558098"
       cy="9.3665409"
       rx="8.4541569"
       ry="6.3544989" />
    <path
       style="fill:#424282;fill-opacity:1;stroke:#424282;stroke-width:6.69127;stroke-miterlimit:4;stroke-dasharray:none;stroke-opacity:1"
       id="path345779"
       transform="matrix(0.13414424,-0.10824592,0.06574377,0.23345251,-79.734645,91.519921)"
       d="m 87.488784,-275.87317 c -1.199992,6.58131 -20.929755,20.22583 -27.511068,19.02584 -6.581312,-1.19999 -20.225833,-20.92975 -19.025841,-27.51107 1.199992,-6.58131 20.929754,-20.22583 27.511067,-19.02584 6.581313,1.19999 20.225834,20.92976 19.025842,27.51107 z" />
    <ellipse
       style="fill:#ffffff;fill-opacity:1;stroke:#000000;stroke-width:0.185283;stroke-miterlimit:4;stroke-dasharray:none"
       id="ellipse345781"
       cx="-76.558098"
       cy="9.3665409"
       rx="7.1945181"
       ry="5.5088725" />
    <ellipse
       style="fill:#424282;fill-opacity:1;stroke:#424282;stroke-width:1.31177;stroke-miterlimit:4;stroke-dasharray:none;stroke-opacity:1"
       id="ellipse345783"
       cx="-72.68718"
       cy="9.852066"
       rx="2.2629144"
       ry="2.0489993" />
    <ellipse
       style="fill:#ffffff;fill-opacity:1;stroke:#000000;stroke-width:0.185283;stroke-miterlimit:4;stroke-dasharray:none"
       id="ellipse345785"
       cx="-104.71914"
       cy="12.582258"
       rx="7.1945181"
       ry="5.5088725" />
    <ellipse
       style="fill:#424282;fill-opacity:1;stroke:#424282;stroke-width:1.31177;stroke-miterlimit:4;stroke-dasharray:none;stroke-opacity:1"
       id="ellipse345787"
       cx="-101.53458"
       cy="12.495214"
       rx="2.9461458"
       ry="2.3964257" />
    <path
       style="fill:#d7e3f4;fill-opacity:1;stroke:#424282;stroke-width:1.09004;stroke-linecap:butt;stroke-linejoin:miter;stroke-miterlimit:4;stroke-dasharray:none;stroke-opacity:1"
       d="m -101.41069,-0.98784933 c 2.145873,0.56127218 6.437108,1.68368376 10.917399,0.79881223 4.48029,-0.8848715 9.149399,-3.7768339 9.334324,-1.9685922 0.184925,1.80824171 -4.1143,8.3166274 -6.592326,11.5743573 -2.478025,3.25773 -3.147311,3.264996 -5.503651,1.216029 -2.35634,-2.0489673 -6.405605,-6.1542147 -8.515046,-8.4395333 -2.10943,-2.28531859 -2.27879,-2.75061192 -2.25322,-3.07115469 0.0256,-0.32054281 0.24612,-0.49592491 0.35639,-0.58360811 0.11026,-0.087683 0.11026,-0.087582 2.25613,0.47368977 z"
       id="path345789" />
    <g
       id="g1750"
       transform="matrix(1.0795165,0,0,1.0780712,10.619872,-6.4658219)"
       style="fill:#000000">
      <path
         d="m -105.21472,34.67607 c -0.18146,-0.340349 -0.77121,-1.276305 -0.81656,-1.403934 l -0.18147,-0.425405 c 0,-0.127647 0.0907,-0.212721 0.22682,-0.212721 0.13611,0 0.31755,0.08507 0.58975,0.297794 1.04339,1.403917 2.08679,3.445977 2.99408,5.615648 0.99805,2.424965 1.58778,5.317889 1.58778,6.934508 0,4.424471 -2.72189,7.785355 -5.53451,10.252857 -2.858,2.51002 -2.58582,2.254762 -2.76727,2.382391 -1.72386,1.446453 -2.858,4.041583 -3.2209,4.041583 h -0.99804 v -8.083149 c 1.8146,-0.297794 3.13017,-0.467996 3.94676,-0.680699 3.9921,-1.148658 7.62129,-4.041583 7.62129,-8.508572 0,-1.276287 -0.54437,-3.786325 -1.36094,-5.870923 -0.77119,-1.999523 -1.40632,-3.105645 -2.08679,-4.339378 z"
         id="path345791"
         style="fill:#000000;fill-opacity:1;stroke-width:1.20341;stroke-miterlimit:4;stroke-dasharray:none" />
      <path
         d="m -97.783956,15.117207 c 0,-1.164056 -0.959189,-2.063538 -2.426124,-2.063538 -0.67706,0 -1.46697,0.158732 -2.31328,0.529116 -4.79581,2.275172 -9.30954,4.97365 -9.30954,8.254183 0.28211,1.322769 0.84634,1.693153 2.76466,1.693153 3.78024,-0.58202 11.284284,-5.02659 11.284284,-8.412914 z m -15.685154,5.291148 c 0,-3.597978 4.11877,-9.206604 11.28426,-9.206604 3.723813,0 6.432043,2.063554 6.432043,5.132416 0,4.444572 -5.980663,9.153682 -12.299833,9.153682 -3.61097,0 -5.41647,-1.693171 -5.41647,-5.079494 z"
         id="path345793"
         style="fill:#000000;fill-opacity:1;stroke-width:1.20341;stroke-miterlimit:4;stroke-dasharray:none" />
      <path
         style="fill:#000000;stroke:#000000;stroke-width:1.20341;stroke-linecap:butt;stroke-linejoin:miter;stroke-miterlimit:4;stroke-dasharray:none;stroke-opacity:1"
         d="m -112.76382,20.408355 c 0,12.857285 0,25.714554 0,38.571786"
         id="path345795" />
    </g>
  </g>
</svg>
